<?xml version="1.0" encoding="UTF-8"?><svg id="Layer_1" xmlns="http://www.w3.org/2000/svg" viewBox="0 0 906 147"><defs><style>.cls-1{fill:#ff3368;}.cls-2{fill:#0f2446;}</style></defs><path class="cls-2" d="M332.46,87.34c0,10.59-9.34,16.5-20.97,16.5-7.37,0-14.74-3.63-20.55-9.44l10.07-10.07c2.91,3.53,7.06,6.23,10.48,6.54,3.43.31,6.33-1.14,6.85-2.7,1.25-3.95-5.92-4.15-8.1-4.78-8.2-2.49-17.75-5.91-17.75-16.09,0-12.14,12.66-16.29,18.99-16.29,7.27,0,14.63,3.32,20.55,9.34l-9.96,9.96c-2.7-3.53-7.37-6.33-10.59-6.33-1.66,0-4.98.62-4.98,3.94.02,6.13,25.96,3.23,25.96,19.42Z"/><path class="cls-2" d="M402.22,103.01v-29.27c0-7.89-2.18-11.21-7.99-11.21-6.23,0-9.86,3.32-9.86,11.21v29.27h-15.47v-29.27c0-7.89-2.08-11.21-7.99-11.21-6.23,0-9.96,3.32-9.96,11.21v29.27h-15.36v-51.27h15.36v4.67c3.63-3.63,9.13-5.4,14.01-5.4,7.27,0,11.94,2.7,15.26,6.96,2.8-3.43,8.82-6.54,17.85-6.96,14.43,0,19.62,6.85,19.62,22.73v29.27h-15.47Z"/><path class="cls-2" d="M424.24,60.35c5.71-6.43,13.39-9.44,21.38-9.44,15.36,0,21.59,8.41,21.59,16.29v35.81h-15.36v-3.63c-2.39,2.49-6.64,4.36-11.42,4.36-14.01,0-19.41-6.23-19.41-15.77,0-10.8,8.72-18.06,22.83-18.06h7.99c0-3.84-2.91-6.33-7.27-6.33s-6.64.83-8.93,3.32l-11.4-6.55ZM451.85,81.53h-9.03c-4.05,0-7.06,2.8-6.43,6.74.42,2.8,2.91,3.95,6.43,3.95,6.75,0,9.03-3.84,9.03-6.12v-4.57Z"/><path class="cls-2" d="M506.13,63.99c-3.84-1.66-4.57-1.35-6.33-1.35-6.23,0-9.86,3.32-9.86,11.52v28.85h-15.36v-51.27h15.36v4.57c1.97-3.53,7.37-5.29,10.79-5.29,3.22,0,5.08.11,7.47,1.45l-2.07,11.52Z"/><path class="cls-2" d="M537.2,91.18c2.8,0,4.57-1.14,6.54-2.59v12.66c-2.39,1.35-5.29,2.59-8.41,2.59-13.18,0-19.1-5.6-19.1-22.63v-16.81h-5.71v-12.66h5.71v-14.74h15.36v14.74h12.14v12.66h-12.13v16.81c0,3.74-.11,9.97,5.6,9.97Z"/><path class="cls-2" d="M587.64,93.98c-2.7,6.12-9.86,10.07-18.79,10.07h-.1c-7.16,0-13.7-3.01-18.58-7.78l6.95-6.96c2.91,3.74,7.06,5.6,11.62,5.6,5.09,0,9.34-1.87,10.48-4.57.73-1.87.1-3.84.1-4.05-1.25-3.12-5.81-3.74-11-4.88-6.95-1.56-13.91-3.32-16.61-10.59-1.35-3.74-.93-8.1.93-11.73,4.26-7.99,14.84-8.3,16.09-8.3,7.16,0,13.91,2.7,18.68,7.58l-6.95,6.95c-2.91-3.74-7.16-5.4-11.73-5.4-.1,0-6.23.1-7.99,3.53-.62,1.04-.93,2.81-.41,4.26,1.04,2.91,5.71,3.84,10.69,4.98,6.75,1.56,14.12,3.11,16.81,10.38.22.63,1.99,5.72-.19,10.91Z"/><path class="cls-2" d="M645.69,77.48c0,15.26-11.94,26.57-26.67,26.57s-26.67-11.31-26.67-26.57,11.93-26.68,26.67-26.68,26.67,11.42,26.67,26.68ZM603.03,77.48c0,10.38,7.16,17.85,15.98,17.85s15.98-7.47,15.98-17.85-7.16-17.85-15.98-17.85c-8.82,0-15.98,7.36-15.98,17.85Z"/><path class="cls-2" d="M650.18,51.74h10.69v28.54c0,10.38,3.22,14.95,12.04,14.95,9.97,0,14.01-6.96,14.01-15.98v-27.5h10.69v51.27h-10.69v-8.3c-1.45,4.57-7.89,8.72-14.01,9.13-13.91,1.04-22.73-5.71-22.73-22.52v-29.59Z"/><path class="cls-2" d="M732.69,60.77c-.73-.42-3.01-1.14-4.88-1.14-8.82,0-12.97,8.41-12.97,18.78v24.6h-10.69v-51.27h10.69v7.27c1.25-4.78,6.75-8.2,12.87-8.2,2.8,0,5.81.73,7.27,1.56l-2.29,8.4Z"/><path class="cls-2" d="M778.18,96.26c-4.88,5.4-11.83,7.78-19.62,7.78-14.74,0-26.67-11.31-26.67-26.57s11.93-26.68,26.67-26.68c7.78,0,14.74,2.39,19.62,7.79l-7.37,6.64c-3.01-4.05-7.37-5.6-12.25-5.6-8.82,0-15.98,7.37-15.98,17.85s7.16,17.85,15.98,17.85c4.88,0,9.24-1.56,12.25-5.71l7.37,6.65Z"/><path class="cls-2" d="M789.22,38.87c-3.22,0-5.81-2.59-5.81-5.92s2.59-5.81,5.81-5.81,5.92,2.59,5.92,5.81c0,3.32-2.6,5.92-5.92,5.92ZM794.62,103.01h-10.69v-51.27h10.69v51.27Z"/><path class="cls-2" d="M849.1,103.01h-10.69v-28.54c0-10.38-3.22-14.95-12.04-14.95-9.96,0-14.01,6.96-14.01,15.98v27.5h-10.69v-51.26h10.69v8.3c1.45-4.57,7.89-8.72,14.01-9.13,13.91-1.04,22.73,5.71,22.73,22.52v29.58Z"/><path class="cls-2" d="M903,51.74v52.1c0,15.26-11.93,27.61-26.67,27.61-7.68,0-14.63-3.43-19.51-8.82l7.37-6.64c2.91,4.15,7.27,6.74,12.14,6.74,8.82,0,15.98-8.51,15.98-18.89v-4.77c-3.42,2.8-9.76,4.88-14.74,4.88-14.74,0-25.64-11.31-25.64-26.57s10.9-26.67,25.64-26.67c4.98,0,10.69,1.87,14.74,4.98v-3.94h10.69ZM892.31,87.02c1.45-2.8,2.28-6.12,2.28-9.65s-.83-6.85-2.28-9.75c-2.8-5.5-7.89-8.1-13.7-8.1-8.82,0-15.98,7.37-15.98,17.85s7.16,17.85,15.98,17.85c5.81.01,10.9-2.69,13.7-8.2Z"/><path class="cls-1" d="M51.36,49.31c6.34-6.18,14.69-9.57,23.56-9.57,6.47,0,12.75,1.82,18.14,5.27,2.06,1.32,3.99,2.87,5.73,4.61l45.87,46.51s6.58,6.2,9.95,9.28c.74.65,2.44,2.03,4.87,3.32,1.53.78,3.11,1.46,4.72,2.03,4.24,1.5,8.68,2.26,13.2,2.26,10.56,0,20.48-4.11,27.95-11.58.24-.24.48-.48.71-.73.68-.72,1.35-1.47,1.98-2.24,12.88-15.76,11.72-38.51-2.69-52.92-7.46-7.46-17.39-11.58-27.95-11.58-8.66,0-17.11,2.86-23.95,8.08l-23.09-23.09c13.06-11.28,29.7-17.48,47.04-17.48h0c19.23,0,37.31,7.49,50.91,21.09,27.11,27.11,28.26,70.64,2.61,99.1-.58.64-1.21,1.31-1.93,2.06l-.22.22c-.15.16-.3.31-.45.47-4.49,4.49-9.55,8.37-15.03,11.53-2.03,1.17-4.15,2.25-6.29,3.22-9.35,4.21-19.31,6.35-29.61,6.35-17.85,0-34.96-6.57-48.18-18.49-.13-.12-1.34-1.26-2.05-1.93l-.23-.22c-.15-.15-.3-.29-.45-.44l-23.3-23.3h0l-3.05-3.05-48.78-48.78Z"/><path class="cls-1" d="M21.51,25.33c.58-.64,1.21-1.31,1.93-2.06l.22-.22c.15-.16.3-.31.45-.47,4.49-4.49,9.55-8.37,15.03-11.53,2.03-1.17,4.15-2.25,6.29-3.22,9.35-4.21,19.31-6.35,29.61-6.35,17.85,0,34.96,6.57,48.18,18.49.13.12,1.34,1.26,2.05,1.93l.23.23c.15.15.3.29.45.44l23.3,23.3h0l3.05,3.05,48.76,48.76c-6.34,6.18-14.69,9.57-23.56,9.57-6.47,0-12.74-1.82-18.14-5.27-2.06-1.32-3.99-2.87-5.73-4.61l-45.66-46.31s-4.58-4.34-7.97-7.54h0c-.28-.26-.55-.51-.8-.76-1.23-1.12-3.72-3.22-6.48-4.63l-.12-.06c-.06-.03-.12-.06-.17-.09-1.37-.67-2.77-1.26-4.2-1.77-4.24-1.5-8.68-2.26-13.2-2.26-10.56,0-20.48,4.11-27.94,11.57-.24.24-.48.48-.71.73-.68.72-1.35,1.47-1.98,2.24-12.88,15.76-11.72,38.51,2.69,52.92,7.46,7.46,17.39,11.58,27.95,11.58,8.66,0,17.11-2.86,23.95-8.08l23.09,23.09c-13.06,11.28-29.7,17.48-47.04,17.48h-.01c-19.23,0-37.31-7.49-50.91-21.09C-3,97.31-4.14,53.79,21.51,25.33"/></svg>