<?xml version="1.0" encoding="UTF-8"?>
<svg id="Layer_1" xmlns="http://www.w3.org/2000/svg" version="1.1" viewBox="0 0 610 360.65">
  <!-- Generator: Adobe Illustrator 29.7.1, SVG Export Plug-In . SVG Version: 2.1.1 Build 8)  -->
  <defs>
    <style>
      .st0 {
        fill: #ff3368;
      }
    </style>
  </defs>
  <path class="st0" d="M122.74,121.41c15.44-15.04,35.76-23.3,57.35-23.3,15.76,0,31.03,4.44,44.16,12.84,5.02,3.21,9.73,7,13.96,11.23l111.67,113.24s16.02,15.09,24.24,22.6c1.8,1.59,5.95,4.95,11.86,8.09,3.72,1.89,7.56,3.55,11.5,4.95,10.33,3.65,21.14,5.5,32.14,5.5,25.7,0,49.87-10.01,68.04-28.18.59-.59,1.16-1.18,1.73-1.78,1.66-1.75,3.28-3.59,4.81-5.46,31.36-38.37,28.54-93.77-6.54-128.85-18.17-18.17-42.34-28.18-68.04-28.18-21.07,0-41.66,6.96-58.32,19.67l-56.21-56.21c31.78-27.48,72.31-42.57,114.53-42.57h.02c46.82,0,90.84,18.24,123.96,51.35,66.02,66.02,68.8,172,6.34,241.27-1.4,1.56-2.94,3.19-4.71,5l-.53.55c-.37.38-.73.76-1.11,1.13-10.94,10.94-23.25,20.38-36.59,28.06-4.95,2.85-10.1,5.49-15.31,7.83-22.75,10.25-47.01,15.45-72.09,15.45-43.45,0-85.11-15.99-117.3-45.02-.32-.29-3.26-3.06-5-4.71l-.56-.55c-.37-.35-.73-.71-1.09-1.07l-56.74-56.74h0l-7.43-7.43-118.74-118.71Z"/>
  <path class="st0" d="M50.07,63.03c1.4-1.56,2.94-3.19,4.71-5l.53-.55c.37-.38.73-.76,1.11-1.13,10.93-10.95,23.25-20.39,36.59-28.07,4.95-2.85,10.1-5.48,15.31-7.83,22.75-10.25,47-15.45,72.08-15.45,43.45,0,85.11,15.99,117.3,45.02.32.29,3.26,3.06,5,4.71l.56.55c.37.35.73.71,1.09,1.07l56.74,56.74h0l7.43,7.43,118.73,118.73c-15.44,15.04-35.76,23.3-57.35,23.3-15.76,0-31.03-4.44-44.16-12.84-5.02-3.21-9.73-6.99-13.96-11.23l-111.17-112.74s-11.14-10.56-19.4-18.35h0c-.68-.64-1.33-1.25-1.96-1.84-2.99-2.72-9.07-7.84-15.77-11.28l-.3-.15-.42-.21c-3.33-1.63-6.75-3.07-10.24-4.31-10.33-3.65-21.14-5.5-32.14-5.5-25.7,0-49.87,10.01-68.04,28.18-.59.59-1.16,1.18-1.73,1.78-1.66,1.75-3.28,3.59-4.81,5.46-31.36,38.37-28.54,93.77,6.54,128.85,18.17,18.17,42.34,28.18,68.04,28.18,21.07,0,41.66-6.96,58.32-19.67l56.21,56.21c-31.79,27.47-72.31,42.56-114.53,42.57h-.02c-46.82,0-90.84-18.24-123.96-51.35C-9.61,238.28-12.39,132.3,50.07,63.03"/>
</svg>